<?xml version="1.0" encoding="utf-8"?>
<svg version="1.1" id="Camada_1" xmlns="http://www.w3.org/2000/svg" xmlns:xlink="http://www.w3.org/1999/xlink" x="0px" y="0px"
	 viewBox="0 0 1000 1000" style="enable-background:new 0 0 1000 1000;" xml:space="preserve">
<style type="text/css">
	.st0{fill:url(#SVGID_1_);}
	.st1{fill:url(#SVGID_2_);}
</style>
<linearGradient id="SVGID_1_" gradientUnits="userSpaceOnUse" x1="500" y1="40.8862" x2="500" y2="959.1138">
	<stop  offset="0" style="stop-color:#FFA71F"/>
	<stop  offset="0.25" style="stop-color:#F06A13"/>
	<stop  offset="0.5" style="stop-color:#FF2720"/>
	<stop  offset="0.75" style="stop-color:#78003D"/>
	<stop  offset="1" style="stop-color:#0F0027"/>
</linearGradient>
<path class="st0" d="M635.83,769.67c-6.76-10.31-13.65-20.54-20.01-31.09c-6.77-11.22-9.45-23.63-6.9-36.52
	c1.61-8.08,3.62-16.11,5.9-24.05c0.02-1.43,0.01-2.87-0.03-4.31c-0.19-6.87-0.76-13.72-3.75-20.09c-0.57-1.22-1.23-2.4-1.94-3.54
	c-11.29-18.19-26.65-32.15-45.01-42.85c-3.79-2.21-8.25-3.48-12.56-4.56c-3.27-0.83-4.01,0.12-3.99,3.47
	c0.37,46.44,0.78,92.88,1.1,139.33c0.07,9.39,0.72,18.91-0.55,28.14c-1.88,13.72-7.73,25.69-18.98,34.76
	c-11.82,9.53-25.34,13.99-40.18,14.62c-9.98,0.42-19.63-1.67-28.13-7.28c-5.61-3.7-9.44-8.85-10.86-15.57
	c-3.04-14.29,0.37-27.44,8.44-39.09c4.18-6.02,9.73-11.06,17.03-14.16c7.79-3.31,15.52-6.57,23.96-7.28
	c5.72-0.48,11.54-0.02,17.3,0.2c6.06,0.22,6.62-0.17,6.67-6.38c0.11-12.11,0.12-24.22,0.24-36.32c0.3-28.46,0.65-56.92,0.94-85.39
	c0.31-29.45,0.57-58.9,0.88-88.35c0.02-1.94,0.07-3.07,0.5-3.73c-0.11-0.99-0.2-1.98-0.26-2.97c-1.28-20.59-0.62-41.31-0.85-61.97
	c-0.98-89.82-1.97-179.63-3.03-269.45c-0.12-10.02,2.46-19.1,8.35-27.19c3.87-5.31,5.68-11.23,5.78-17.75
	c0.02-1.05,0.22-2.11,0.39-3.59c3.65,5.41,8.23,6.41,12.63,3.15c2.39-1.76,3.18-8.12,0.74-9.95c-2.01-1.5-4.89-2.69-7.3-2.55
	c-2.09,0.12-4.06,2.3-5.89,3.46v-16.25c1.83,3.34,3.71,5.4,7.74,4.2c3.07-0.91,6.45-1.23,6.7-5.43c0.18-3.02,0.48-6.25-3.22-7.56
	c-4.3-1.52-8.71-2.99-11.22,4.06V90.75c1.88,3.55,3.9,5.47,8.13,4.13c3.14-1,6.23-1.57,6.37-5.75c0.09-3.1,0.11-6.26-3.61-7.33
	c-4.12-1.18-8.66-3.28-10.91,3.68c-0.57-5.25-0.52-9.82-0.58-14.38c-0.2-15.35-9.52-26.85-24.6-29.5
	c-5.51-0.97-11.27-0.68-16.92-0.67c-16.43,0.03-29.14,12.28-29.91,28.75c-0.17,3.65-0.02,7.33-0.07,10.99
	c-0.03,1.5-0.21,2.99-0.39,5.44c-3.89-5.78-8.22-6.74-12.7-3.69c-2.38,1.62-3.37,7.98-0.96,9.92c2.05,1.64,5.15,3.03,7.63,2.8
	c2.12-0.19,4.02-2.83,5.99-4.37v18.46c-4.08-4.9-10.53-6.29-13.03-2.41c-1.52,2.37-1.31,6.73-0.22,9.55
	c0.61,1.58,4.71,2.73,7.05,2.45c2.2-0.27,4.15-2.65,6.16-4.06V132c-3.99-4.98-9.79-5.9-13.24-2.57c-2.22,2.14-2.42,8.49,0.14,10.04
	c2.17,1.32,5.1,2.44,7.46,2.07c2.05-0.32,3.76-2.84,4.9-3.78c1.89,5.96,2.69,13.14,6.2,18.54c6.57,10.11,9.4,20.56,9.25,32.5
	c-1.31,105.31-2.39,210.62-3.55,315.94c-0.02,1.62-0.15,3.24-0.24,4.99c-1.58,0.15-2.72,0.29-3.86,0.35
	c-41.87,2.24-76.05,20.34-103.82,51.05c-10.72,11.85-18.01,25.74-18.8,42.1c-0.69,14.27,0.93,28.46,6.52,41.66
	c4.72,11.16,10.4,21.96,16.34,32.54c10.95,19.51,12.67,39.32,3.44,59.87c-7.23,16.1-14.4,32.23-21.72,48.29
	c-14.56,31.91-14.61,64.32-2.35,96.69c13.66,36.05,41.61,56.54,77.36,67.29c34.87,10.49,70.49,11.78,106.39,6.54
	c27.14-3.96,53.01-11.77,76.26-26.74c27.09-17.44,44.84-41.2,47.35-74.2C660.27,824.29,652.88,795.68,635.83,769.67z M510.83,74.08
	c2.39-1.05,5.89-1.12,8.33-0.18c3.85,1.5,4.53,5.32,3.96,9.66h-15.9C506.53,79.5,507.1,75.72,510.83,74.08z M522.99,92.11v15.3
	H507.4v-15.3H522.99z M506.97,116.05h15.94v14.42c-4.56,0-9,0.16-13.42-0.13c-0.9-0.06-2.32-1.75-2.4-2.77
	C506.79,123.95,506.97,120.3,506.97,116.05z M507.33,138.89h15.57c0.96,4.56,0.54,8.72-3.59,10.63c-2.32,1.08-5.94,1.07-8.3,0.02
	C506.83,147.67,506.38,143.52,507.33,138.89z M480.54,74.26c2.36-1.12,5.82-1.34,8.29-0.49c3.88,1.35,4.89,5.02,4.16,9.62H477.4
	C476.26,79.4,477.12,75.89,480.54,74.26z M493.05,116.2v13.95h-15.69V116.2H493.05z M477.41,107.54V92.11h15.5v15.43H477.41z
	 M477.15,138.88h15.81c0.87,4.47,0.55,8.64-3.62,10.58c-2.35,1.09-5.98,1.15-8.34,0.1C476.8,147.68,476.42,143.44,477.15,138.88z
	 M602.52,568.36c-9.11-4.03-19.37-5.8-29.28-7.6c-2.88-0.53-5.81-0.8-8.75-1c4.88,5.72,10.58,10.62,16.69,15.22
	c10.23,7.72,20.21,15.8,29.84,24.25c8.62,7.54,14.83,17.1,18.56,27.91c0.44,1.27,0.85,2.56,1.22,3.85c0.22-0.75,0.43-1.5,0.63-2.25
	C638.76,601.27,628.59,579.9,602.52,568.36z"/>
</svg>
